<svg width="24" height="24" fill="#000" xmlns="http://www.w3.org/2000/svg">
  <path d="M10.312 6.138c0-.611.246-1.166.642-1.567a2.167 2.167 0 0 1 3.093 0c.396.401.642.956.642 1.567v2.217H10.312V6.138zm10.233 2.217h-4.947V6.138a3.157 3.157 0 0 0-.909-2.218 3.093 3.093 0 0 0-.984-.673A3.038 3.038 0 0 0 12.5 3c-.426 0-.834.088-1.204.247s-.704.389-.985.673a3.157 3.157 0 0 0-.908 2.217v2.218H4.455a.449.449 0 0 0-.419.28.47.47 0 0 0-.036.18V18.95a.469.469 0 0 0 .278.424.45.45 0 0 0 .177.037L8.478 20h8.045l4.022-.59a.453.453 0 0 0 .42-.28.468.468 0 0 0 .035-.18V8.815a.47.47 0 0 0-.133-.325.448.448 0 0 0-.322-.135z"/>
</svg>
