<?xml version="1.0" encoding="UTF-8"?>
<svg width="24px" height="24px" viewBox="0 0 24 24" version="1.1" xmlns="http://www.w3.org/2000/svg" xmlns:xlink="http://www.w3.org/1999/xlink">
    <!-- Generator: Sketch 50.2 (55047) - http://www.bohemiancoding.com/sketch -->
    <title>general/big-cross/dark</title>
    <desc>Created with Sketch.</desc>
    <defs></defs>
    <g id="general/big-cross/dark" stroke="none" stroke-width="1" fill="none" fill-rule="evenodd">
        <path d="M13.1421356,11.1421356 L21.1421356,11.1421356 C21.6944204,11.1421356 22.1421356,11.5898509 22.1421356,12.1421356 C22.1421356,12.6944204 21.6944204,13.1421356 21.1421356,13.1421356 L13.1421356,13.1421356 L13.1421356,21.1421356 C13.1421356,21.6944204 12.6944204,22.1421356 12.1421356,22.1421356 C11.5898509,22.1421356 11.1421356,21.6944204 11.1421356,21.1421356 L11.1421356,13.1421356 L3.14213562,13.1421356 C2.58985087,13.1421356 2.14213562,12.6944204 2.14213562,12.1421356 C2.14213562,11.5898509 2.58985087,11.1421356 3.14213562,11.1421356 L11.1421356,11.1421356 L11.1421356,3.14213562 C11.1421356,2.58985087 11.5898509,2.14213562 12.1421356,2.14213562 C12.6944204,2.14213562 13.1421356,2.58985087 13.1421356,3.14213562 L13.1421356,11.1421356 Z" id="Combined-Shape" fill="#222222" transform="translate(12.142136, 12.142136) rotate(45.000000) translate(-12.142136, -12.142136) "></path>
    </g>
</svg>