<svg width="24" height="24" fill="#000" xmlns="http://www.w3.org/2000/svg">
  <path d="M11.916 15.8a2.87 2.87 0 0 1-2.867-2.871V6.872A2.871 2.871 0 0 1 11.916 4a2.87 2.87 0 0 1 2.87 2.87v6.058a2.872 2.872 0 0 1-2.87 2.87zm3.689-4.849a.63.63 0 0 1 .614-.627.63.63 0 0 1 .614.626v2.725c0 1.682-2.253 4.232-4.302 4.232v1.686h2.033a.63.63 0 0 1 .63.633.63.63 0 0 1-.628.632H9.268a.633.633 0 0 1 .002-1.265h2.032v-1.686C9.254 17.907 7 15.357 7 13.675v-2.718c0-.346.278-.625.615-.633a.63.63 0 0 1 .614.627v2.723c0 1.264 1.639 2.95 3.688 2.95 2.048 0 3.688-1.685 3.688-2.95v-2.723z"/>
</svg>
