<?xml version="1.0" encoding="UTF-8"?>
<svg width="25px" height="17px" viewBox="0 0 25 17" version="1.1" xmlns="http://www.w3.org/2000/svg" xmlns:xlink="http://www.w3.org/1999/xlink">
    <!-- Generator: Sketch 50.2 (55047) - http://www.bohemiancoding.com/sketch -->
    <title>Group 5</title>
    <desc>Created with Sketch.</desc>
    <defs></defs>
    <g id="Final" stroke="none" stroke-width="1" fill="none" fill-rule="evenodd">
        <g id="375---search---1-result" transform="translate(-126.000000, -627.000000)" fill="#222222">
            <g id="Group-20-Copy-3" transform="translate(0.000000, 618.000000)">
                <g id="Group-4" transform="translate(114.000000, 3.000000)">
                    <g id="Group-2-Copy">
                        <g id="Group-5" transform="translate(12.000000, 6.000000)">
                            <path d="M15.5424522,13.0258743 C12.5198775,13.0258743 10.0600375,10.5660342 10.0600375,7.54246005 C10.0600375,4.51988539 12.5198775,2.0610449 15.5424522,2.0610449 C18.5650268,2.0610449 21.0248669,4.51988539 21.0248669,7.54246005 C21.0248669,10.5660342 18.5650268,13.0258743 15.5424522,13.0258743 M24.6981421,15.2408278 C24.8930503,15.4357361 23.4357361,16.8930503 23.2408278,16.6981421 L20.09131,13.5486242 C18.7819262,14.5431562 17.1846778,15.0859008 15.5424506,15.0859008 C11.3834078,15.0859008 8,11.7024929 8,7.54245061 C8,3.38340781 11.3834078,0 15.5424506,0 C19.7014934,0 23.0849012,3.38340781 23.0849012,7.54245061 C23.0849012,9.18567733 22.5421566,10.7819262 21.5476246,12.09131 L24.6981421,15.2408278 Z M1.35714286,4 C0.804858107,4 0.357142857,3.55228475 0.357142857,3 C0.357142857,2.44771525 0.804858107,2 1.35714286,2 L5.64285714,2 C6.19514189,2 6.64285714,2.44771525 6.64285714,3 C6.64285714,3.55228475 6.19514189,4 5.64285714,4 L1.35714286,4 Z M1.35714286,9 C0.804858107,9 0.357142857,8.55228475 0.357142857,8 C0.357142857,7.44771525 0.804858107,7 1.35714286,7 L3.64285714,7 C4.19514189,7 4.64285714,7.44771525 4.64285714,8 C4.64285714,8.55228475 4.19514189,9 3.64285714,9 L1.35714286,9 Z M1.37863388,14 C0.826349126,14 0.378633875,13.5522847 0.378633875,13 C0.378633875,12.4477153 0.826349126,12 1.37863388,12 L5.95131138,12 C6.50359613,12 6.95131138,12.4477153 6.95131138,13 C6.95131138,13.5522847 6.50359613,14 5.95131138,14 L1.37863388,14 Z" id="Combined-Shape"></path>
                        </g>
                    </g>
                </g>
            </g>
        </g>
    </g>
</svg>