<svg width="24" height="24" fill="#000" xmlns="http://www.w3.org/2000/svg">
  <path d="M21.468 17.398c-.533-.636-4.246-1.853-4.571-1.872l-.262.02c-.486.096-1.015.51-2.03 1.38a.648.648 0 0 1-.722.092c-1.342-.729-3-2.194-3.818-3.093-.881-.966-1.962-2.528-2.481-3.81-.097-.237-.012-.509.184-.679C8.943 8.42 9.442 7.928 9.475 7.39c.02-.315-.475-3.855-1.363-4.633-.887-.778-1.347-.841-2.106-.691a1.631 1.631 0 0 0-.529.208c-.51.311-1.757 1.152-2.324 2.25-.35.685-.509 6.927 4.305 12.205 4.757 5.216 10.625 5.443 11.506 5.268l.102-.027c1.19-.414 2.199-1.516 2.578-1.97.7-.842.356-1.965-.176-2.6z"/>
</svg>
