<svg width="24" height="24" xmlns="http://www.w3.org/2000/svg">
  <path d="M21.806 18.002H2.2s-.002-.162-.002-.362c0-.147.09-.26.212-.33L12 12.027l9.59 5.284a.361.361 0 0 1 .212.329c0 .2.005.362.005.362zm2.194-.34a2.336 2.336 0 0 0-1.31-2.102l-9.693-5.337c.06-.31.32-.564.514-.72.438-.384 1.014-.928 1.162-2.069.015-.122.024-.247.024-.373C14.697 5.37 13.341 4 11.668 4c-1.673 0-3.03 1.37-3.03 3.06h1.982c0-.584.469-1.058 1.048-1.058.579 0 1.048.474 1.048 1.059 0 .367-.185.689-.465.879v.004a3 3 0 0 0-1.237 2.273L1.31 15.56A2.337 2.337 0 0 0 0 17.663V20h24v-2.337z" fill="#000" fill-rule="evenodd"/>
</svg>
