<?xml version="1.0" encoding="UTF-8"?>
<svg width="17px" height="11px" viewBox="0 0 17 11" version="1.1" xmlns="http://www.w3.org/2000/svg" xmlns:xlink="http://www.w3.org/1999/xlink">
    <!-- Generator: Sketch 48.2 (47327) - http://www.bohemiancoding.com/sketch -->
    <title>signal</title>
    <desc>Created with Sketch.</desc>
    <defs></defs>
    <g id="Page-1" stroke="none" stroke-width="1" fill="none" fill-rule="evenodd">
        <path d="M16,0 L15,0 C14.4477,0 14,0.447723 14,1 L14,9.66666 C14,10.219 14.4477,10.6667 15,10.6667 L16,10.6667 C16.5523,10.6667 17,10.219 17,9.66666 L17,1 C17,0.447723 16.5523,0 16,0 Z M10.3333,2.33334 L11.3333,2.33334 C11.8856,2.33334 12.3333,2.78107 12.3333,3.33334 L12.3333,9.66669 C12.3333,10.219 11.8856,10.6667 11.3333,10.6667 L10.3333,10.6667 C9.78104,10.6667 9.33333,10.219 9.33333,9.66669 L9.33333,3.33334 C9.33333,2.78107 9.78104,2.33334 10.3333,2.33334 Z M6.66667,4.66666 L5.66667,4.66666 C5.11438,4.66666 4.66667,5.11438 4.66667,5.66666 L4.66667,9.66666 C4.66667,10.2189 5.11438,10.6667 5.66667,10.6667 L6.66667,10.6667 C7.21896,10.6667 7.66667,10.2189 7.66667,9.66666 L7.66667,5.66666 C7.66667,5.11438 7.21896,4.66666 6.66667,4.66666 Z M2,6.66666 L1,6.66666 C0.447708,6.66666 0,7.11438 0,7.66666 L0,9.66666 C0,10.2189 0.447708,10.6667 1,10.6667 L2,10.6667 C2.55229,10.6667 3,10.2189 3,9.66666 L3,7.66666 C3,7.11438 2.55229,6.66666 2,6.66666 Z" id="signal" fill="#000000" fill-rule="nonzero"></path>
    </g>
</svg>