<?xml version="1.0" encoding="UTF-8"?>
<svg width="16px" height="12px" viewBox="0 0 16 12" version="1.1" xmlns="http://www.w3.org/2000/svg" xmlns:xlink="http://www.w3.org/1999/xlink">
    <!-- Generator: Sketch 48.2 (47327) - http://www.bohemiancoding.com/sketch -->
    <title>wifi</title>
    <desc>Created with Sketch.</desc>
    <defs></defs>
    <g id="Page-1" stroke="none" stroke-width="1" fill="none" fill-rule="evenodd">
        <path d="M8.33062,2.60831 C10.5465,2.60844 12.6777,3.45988 14.2836,4.98667 C14.4045,5.10453 14.5978,5.10303 14.7169,4.98331 L15.8729,3.81666 C15.9332,3.75593 15.9669,3.67368 15.9664,3.58811 C15.9659,3.50254 15.9313,3.42066 15.8703,3.36066 C11.6552,-0.67889 5.00538,-0.67889 0.7902743,3.36066 C0.7292239,3.42063 0.694571215,3.50245 0.69400664,3.58805 C0.693457324,3.67362 0.7270114,3.7559 0.7872836,3.81666 L1.94361,4.98331 C2.06264,5.10322 2.25608,5.10471 2.37694,4.98667 C3.9831,3.45975 6.11451,2.60831 8.33062,2.60831 Z M8.33062,6.404 C9.5481,6.40391 10.7221,6.85645 11.6246,7.67365 C11.7467,7.78965 11.939,7.78712 12.0579,7.66798 L13.2126,6.50132 C13.2734,6.44013 13.3072,6.35712 13.3063,6.27085 C13.3054,6.18458 13.27,6.10227 13.208,6.04233 C10.45975,3.48594 6.20382,3.48594 3.45562,6.04233 C3.39353,6.10227 3.35811,6.18464 3.35731,6.27091 C3.3565,6.35721 3.39034,6.44022 3.45129,6.50132 L4.60561,7.66798 C4.7246,7.78712 4.91689,7.78965 5.03895,7.67365 C5.94082,6.857 7.11393,6.40449 8.33062,6.404 Z M10.64361,8.9578 C10.64538,9.04432 10.61138,9.12772 10.54961,9.18833 L8.55228,11.204 C8.49374,11.2632 8.41392,11.2966 8.33062,11.2966 C8.24734,11.2966 8.1675,11.2632 8.10895,11.204 L6.11129,9.18833 C6.04958,9.12766 6.01563,9.04423 6.01746,8.95774 C6.01929,8.87122 6.05674,8.78931 6.12095,8.73133 C7.39652,7.65244 9.26472,7.65244 10.54029,8.73133 C10.60447,8.78934 10.64185,8.87128 10.64361,8.9578 Z" id="wifi" fill="#000000" fill-rule="nonzero"></path>
    </g>
</svg>